# xmcd
#
# Track frame offsets: 
#        150
#        17195
#        33352
#        48752
#        65652
#        80742
#        95343
#        110068
#        127527
#        142451
#        153651
#        166001
#        184484
#        200929
#        215571
#        225852
#        243491
#        258851
#        280769
#        296868
#        314907
#        329075
#
# Disc length: 4610 seconds
#
# Revision: 0
# Processed by: cddbd v1.5.1PL0 Copyright (c) Steve Scherf et al.
# Submitted via: ExactAudioCopy v0.95a5
#
DISCID=57120016
DTITLE=Eddy Raven - Live in Concert
DYEAR=2002
DGENRE=Country
TTITLE0=Intro
TTITLE1=Shine, Shine, Shine
TTITLE2=Sometimes A Lady
TTITLE3=Joe Knows How To Live
TTITLE4=You Should've Been Gone By Now
TTITLE5=Right Hand Man
TTITLE6=In A Letter To You
TTITLE7='Til You Cry
TTITLE8=Sooner Or Later
TTITLE9=I Got Mexico
TTITLE10=You're Never Too Old (For Young Love)
TTITLE11=She's Gonna Win Your Heart
TTITLE12=Operator, Operator
TTITLE13=Thank God For Kids
TTITLE14=I'm Gonna Get You
TTITLE15=Bayou Boys
TTITLE16=I Wanna Hear It From You
TTITLE17=I Should Have Called/Who Do You Know In California (Medley)
TTITLE18=Island
TTITLE19=Thinkin' It Over
TTITLE20=Other Than Montreal
TTITLE21=I Could Use Another You
EXTD=
EXTT0=
EXTT1=
EXTT2=
EXTT3=
EXTT4=
EXTT5=
EXTT6=
EXTT7=
EXTT8=
EXTT9=
EXTT10=
EXTT11=
EXTT12=
EXTT13=
EXTT14=
EXTT15=
EXTT16=
EXTT17=
EXTT18=
EXTT19=
EXTT20=
EXTT21=
PLAYORDER=
